<svg xmlns="http://www.w3.org/2000/svg" width="493.468" height="202.126" viewBox="0 0 493.468 202.126">
  <path id="Path_29586" data-name="Path 29586" d="M215.571,365.626a4.976,4.976,0,0,1-1.728-.311,4.485,4.485,0,0,1-3.015-4.2V314.086a6.169,6.169,0,0,0-6.308-6H194.4c-8.7-.009-15.758-6.724-15.768-15.009V178.509c.01-8.286,7.063-15,15.767-15.009H656.335c8.7.009,15.758,6.724,15.767,15.009V293.072c-.01,8.286-7.063,15-15.767,15.009H275.822a6.475,6.475,0,0,0-4.65,1.947l-52.128,54.133A4.813,4.813,0,0,1,215.571,365.626ZM194.4,165.5c-7.544.008-13.657,5.828-13.666,13.009V293.072c.008,7.181,6.122,13,13.666,13.009H204.52a8.224,8.224,0,0,1,8.409,8v47.033a2.508,2.508,0,0,0,1.676,2.332,2.721,2.721,0,0,0,2.891-.641l52.128-54.133a8.631,8.631,0,0,1,6.2-2.6H656.335c7.544-.008,13.658-5.828,13.666-13.009V178.509c-.009-7.181-6.122-13-13.666-13.009Z" transform="translate(-178.635 -163.5)" fill="#ccc"/>
</svg>
