<svg xmlns="http://www.w3.org/2000/svg" width="633.995" height="419.352" viewBox="0 0 633.995 419.352">
  <g id="Group" transform="translate(-60.526)">
    <path id="Path_29195" data-name="Path 29195" d="M1236.79,898.333s7.513-8.761.463-14.329c0,0-5.149-3.116-9.345-2.863,0,0,5.947,9.973,4.022,10.967s-5.826-11.6-5.826-11.6-11.716-1.135-15.484.676c0,0,10.013,8.2,7.9,8.684s-12.924-7.557-12.924-7.557-10.907,1.856-10.323,8.507,4.336,8.709,5.987,8.531,11.313-3.865,11.523-2.512-5.6,5.778-9.675,5.983c0,0,7.686,8.479,12.8,6.031s5.548-6.325,8.733-7.779,5.9-1.453,4.59.032-7.082,2.923-8.9,6.148-3.454,5.391,1.832,4.6,13.878-4.662,14.252-9.1l.379-4.429" transform="translate(-714.181 -525.797)" fill="#3662c1"/>
    <path id="Path_29196" data-name="Path 29196" d="M1208.61,907.018s29.62-1.139,36.159,7.328a21.409,21.409,0,0,0,5.9,8.278l.693,1.892s-5.129-5.411-6.969-5.741c0,0,2.875-10.492-35.78-11.756" transform="translate(-722.159 -541.81)" fill="#3662c1"/>
    <path id="Path_29197" data-name="Path 29197" d="M1310.589,944.748a18.605,18.605,0,0,1,6.8,13.1l-1.156.1s-2.029-8.684-5.7-12.083.056-1.123.056-1.123" transform="translate(-782.081 -563.935)" fill="#3662c1"/>
    <path id="Path_29198" data-name="Path 29198" d="M1351.994,852.011s-11.95-6.691-6.374-15.774c0,0,4.461-5.576,9.244-7.01,0,0-2.553,13.544,0,13.862s1.751-15.3,1.751-15.3,12.586-6.055,17.526-5.576c0,0-7.807,13.226-5.258,12.9s11.313-13.7,11.313-13.7,12.9-2.388,14.973,5.258-1.272,11.47-3.185,11.95-14.18.318-13.862,1.912,8.6,4.143,13.222,2.71c0,0-5.1,12.586-11.788,11.946s-8.761-4.779-12.9-5.1-7.171.8-5.1,1.912,9.079.366,12.425,3.209,6.055,4.6-.157,5.874-17.369.475-19.6-4.3l-2.23-4.779" transform="translate(-803.122 -490.495)" fill="#3a49cd"/>
    <path id="Path_29199" data-name="Path 29199" d="M1396.207,840.944s-33.457,10.834-37.282,22.941a25.413,25.413,0,0,1-3.185,11.632V877.9s3.5-8.125,5.415-9.24c0,0-7.488-10.516,35.052-27.72" transform="translate(-810.053 -502.369)" fill="#3a49cd"/>
    <path id="Path_29200" data-name="Path 29200" d="M1351.1,924.606a22.058,22.058,0,0,0-2.218,17.373l1.329-.358s-1.289-10.5,1.409-15.786-.519-1.228-.519-1.228" transform="translate(-805.415 -551.458)" fill="#3a49cd"/>
    <path id="Path_29201" data-name="Path 29201" d="M1230.713,814.484s15.75-8.821,8.4-20.791c0,0-5.878-7.352-12.179-9.24,0,0,3.358,17.848,0,18.271s-2.311-20.163-2.311-20.163-16.592-7.98-23.1-7.352c0,0,10.291,17.433,6.929,17.014s-14.909-18.061-14.909-18.061-17.01-3.152-19.74,6.929,1.679,15.122,4.2,15.75,18.689.423,18.27,2.52-11.342,5.459-17.429,3.571c0,0,6.72,16.592,15.541,15.75s11.547-6.3,17.01-6.72,9.449,1.051,6.72,2.52-11.97.483-16.382,4.231-7.98,6.059.209,7.738,22.893.632,25.832-5.669l2.943-6.3" transform="translate(-700.849 -462.195)" fill="#bed2fa"/>
    <path id="Path_29202" data-name="Path 29202" d="M1194.38,799.884s44.1,14.285,49.143,30.244a33.528,33.528,0,0,0,4.2,15.332v3.148s-4.622-10.71-7.142-12.179c0,0,9.872-13.862-46.2-36.545" transform="translate(-713.658 -477.84)" fill="#3a49cd"/>
    <path id="Path_29203" data-name="Path 29203" d="M1323.745,910.175s6.8,10.327,2.923,22.9l-1.747-.471s1.695-13.846-1.86-20.811.684-1.618.684-1.618" transform="translate(-789.681 -542.555)" fill="#3a49cd"/>
    <path id="Path_29204" data-name="Path 29204" d="M1272.752,991.9a30.852,30.852,0,0,0,30.856-30.852H1241.9a30.85,30.85,0,0,0,30.852,30.852" transform="translate(-742.046 -574.115)" fill="#93b3f4"/>
    <path id="Path_29205" data-name="Path 29205" d="M1285.925,991.663a30.893,30.893,0,0,1-34.685-30.619h7.666a30.86,30.86,0,0,0,27.019,30.619" transform="translate(-747.626 -574.115)" fill="#bed2fa"/>
    <path id="Path_29206" data-name="Path 29206" d="M1303.4,1035.929H1240.84a3.8,3.8,0,0,1,3.8-3.8h54.949a3.8,3.8,0,0,1,3.8,3.8" transform="translate(-741.413 -616.577)" fill="#93b3f4"/>
    <path id="Path_29207" data-name="Path 29207" d="M1239.38,961.99H1302.8v-.946H1239.38Z" transform="translate(-740.541 -574.115)" fill="#93b3f4"/>
    <path id="Path_29208" data-name="Path 29208" d="M252.118,285.847c-.089-.482-1.22-5.639-9.2-4.759,0,0,3.974-.1,4.9,1.517,0,0-2.963-1.735-5.033-.738s-2.786,4.974-2.617,6.224,1.957,5.1,3.378,5.239a4.256,4.256,0,0,0,1.667-.239,18.458,18.458,0,0,0-.793,2.058c-2.222,6.964,1.969,12.845,4.546,11.754,1.659-.7,2.569,2.165,2.569,2.165l14.748-15.956s-7.98-11.81-14.16-7.264" transform="translate(-143.609 -167.858)" fill="#12123c"/>
    <path id="Path_29209" data-name="Path 29209" d="M273.851,604.974l-3.587,1.337s-15.577-21.608-17.5-40.62a28.887,28.887,0,0,1,.511-9.719s-.149-.87-.419-2.408c-.121-.721-.274-1.582-.447-2.573-.507-2.9-1.2-6.873-2-11.394-1.832-10.408-4.207-23.706-6.051-33.485l.966-.31,10.456-3.374,2.162-6.865,7.787-2.049s1.739,3.4,3.3,19.478c.286,2.106.548,4.433.741,6.953a137.384,137.384,0,0,1-.741,28.159q-.531,4.191-1.365,8.64a38.483,38.483,0,0,0-.3,8.535c.785,15.541,6.49,39.694,6.49,39.694" transform="translate(-146.129 -294.819)" fill="#1a165e"/>
    <path id="Path_29210" data-name="Path 29210" d="M269.769,519.946l-16.91,33.618c-.121-.721-.274-1.582-.447-2.573-.507-2.9-1.2-6.873-2-11.394-1.832-10.408-4.207-23.706-6.051-33.485l.966-.31,10.456-3.374,2.162-6.865,7.787-2.049s1.739,3.4,3.3,19.478c.286,2.106.548,4.433.741,6.953" transform="translate(-146.129 -294.819)" fill="#0e0e38"/>
    <path id="Path_29211" data-name="Path 29211" d="M239.143,492.026l-.395-3.354c-6.555,1.739-24.08-4.868-24.08-4.868s-6.353,5.584-5.516,18.971c.407,6.534,1.151,34.3,1.924,42.512.282,2.979.527,5.1.628,5.947,0,0,0,0,0,.008a1.174,1.174,0,0,1-.193.725A38.561,38.561,0,0,0,208.65,558c-7.621,20.316,1.176,45.334,1.176,45.334l2.283-.922s5-27.841,9.075-40.141a24.316,24.316,0,0,1,1.957-4.707c1.771-2.855,3.414-7.521,4.9-13.069,2.814-10.488,5.081-24.133,6.591-34.665.205.012,4.509-17.8,4.509-17.8" transform="translate(-122.94 -289.018)" fill="#1a165e"/>
    <path id="Path_29212" data-name="Path 29212" d="M291.667,405.63a4.1,4.1,0,0,0,.181.527c2.561,7.219,7.126,14.8,10.238,17.566,2.041,1.832,7.658,3.728,12.433,5.085,3.173.93,6,1.606,7.163,1.9.366.093.584.133.584.133l1.063-3.144s-2.48-1.55-5.508-3.587c-4.2-2.855-9.453-6.611-10.46-8.229-2.327-3.756-3.873-15.235-5.87-22.985-.1-.419-.2-.821-.3-1.22-.077-.294-.153-.58-.234-.862a.749.749,0,0,0-.068-.209c-.109-.322-.193-.612-.286-.878a.143.143,0,0,0-.04-.089,23.584,23.584,0,0,0-1.345-3.084c-.584-.906-1.22-1.353-1.908-1.2a8.671,8.671,0,0,0-2.142,1.115,9.831,9.831,0,0,0-.789.592,2.121,2.121,0,0,0-.455.387,11.416,11.416,0,0,0-2.689,3.6,14.14,14.14,0,0,0-1.244,4.3c-.387,2.774.354,6.466,1.679,10.291" transform="translate(-173.326 -230.186)" fill="#f1ae91"/>
    <path id="Path_29213" data-name="Path 29213" d="M268.055,369.4a20.378,20.378,0,0,1-7.223,2.834c-11.068,2.235-15.022-7.179-16.423-13.6a9.427,9.427,0,0,1,3.756-1.041c.8-.072,1.639-.11,2.331-.125,1.26-.911,3.209-4.73,3.785-10.729l.515.153,8.6,2.617s-.475,2.744-.741,5.343c-.209,2.033-.29,3.98.085,4.467.672.165,1.075.274,1.075.274a.012.012,0,0,0,0,.008,55.8,55.8,0,0,1,4.235,9.8" transform="translate(-146.159 -207.137)" fill="#f1ae91"/>
    <path id="Path_29214" data-name="Path 29214" d="M278.81,349.741s-.475,2.742-.741,5.343c-4.9-.63-7.046-5.369-7.859-7.959l8.6,2.616" transform="translate(-161.572 -207.367)" fill="#ea8989"/>
    <path id="Path_29215" data-name="Path 29215" d="M278.782,330.256s-11.636-.972-10.919-8.209-.3-12.237,7.158-11.924,8.628,3.219,8.974,5.693-2.166,14.506-5.214,14.44" transform="translate(-160.151 -185.255)" fill="#f0ad90"/>
    <path id="Path_29216" data-name="Path 29216" d="M256.935,384.729c-.076-.294-.153-.58-.234-.862a.748.748,0,0,0-.068-.209c-.109-.322-.193-.612-.286-.878a.143.143,0,0,0-.04-.089,23.584,23.584,0,0,0-1.345-3.084,3.842,3.842,0,0,0-1.313-1.441,24.054,24.054,0,0,0-6.921-2.468.013.013,0,0,0,0,.008c.117.266,3.217,7.332,2.7,9.01-.523,1.7-15.533-1.381-16.483-2.444-.761-.854-1.5-5.846-1.767-7.795-.064-.483-.1-.779-.1-.779s-5.427.051-8.246,1.7a23.266,23.266,0,0,1,2.4,5.166c.081.262.157.527.221.793a10.849,10.849,0,0,1,.29,1.691,3.257,3.257,0,0,1-.737,2.174,15.8,15.8,0,0,1-1.884,2.094c-.5.479-1.031.986-1.578,1.53a146.187,146.187,0,0,1,1.695,14.732,10.078,10.078,0,0,1-.821,4.368,10.619,10.619,0,0,1-.85,1.574c-2.633,3.982-7.191,11.821-5.327,16.02.688,4.115,36.284,4.485,34.882.06,0,0,1.57-25.973,3.515-32.467.068-.238.129-.471.181-.7a14.174,14.174,0,0,0-.535-6.981,12.245,12.245,0,0,1,2.649-.717" transform="translate(-129.072 -223.243)" fill="#98b7f5"/>
    <path id="Path_29217" data-name="Path 29217" d="M278.806,309.573c-1.574-2.357-2.979-2.015-3.809-1.436a8.161,8.161,0,0,0-10.609.624,13.891,13.891,0,0,1-5.339,7.714s1.985,1.52,6.993.754a8.333,8.333,0,0,0,4.227-2.333,27.238,27.238,0,0,1-5.234,5.231c6.1-2.112,9.256-9.988,9.574-10.822a9.158,9.158,0,0,1,2.194,3.63c.395,1.9.278,5.72,1.393,5.7,0,0,2.975-5.531.608-9.065" transform="translate(-154.905 -183.07)" fill="#12123c"/>
    <path id="Path_29218" data-name="Path 29218" d="M249.035,435.582c-6.873.922-13.721-5.363-18.1-10.544a10.078,10.078,0,0,0,.821-4.368,146.185,146.185,0,0,0-1.7-14.732c.548-.544,1.083-1.051,1.578-1.53a15.8,15.8,0,0,0,1.884-2.094c7,8.688,24.837,32.012,15.513,33.268" transform="translate(-137.587 -240.337)" fill="#6d89cf"/>
    <path id="Path_29219" data-name="Path 29219" d="M376.957,493.314c-1.546.447-3.869,2.363-7.026.66a51.513,51.513,0,0,0-5.87-2.581c-.471-.149-.741-.25-.741-.25l1.763-3.66a.772.772,0,0,0,.153.064c.829.286,5.041,1.715,7.118,1.494,2.339-.262,5.834,2.927,5.834,2.927s.31.922-1.232,1.345" transform="translate(-217.194 -291.217)" fill="#fc9290"/>
    <path id="Path_29220" data-name="Path 29220" d="M222.193,770.206H204.124a9.949,9.949,0,0,1,.511-4.843c.906-2,2.323-2.915,1.981-5.339a6.517,6.517,0,0,0,5.633,2.154,19.7,19.7,0,0,0,3.136,4.062c1.18.85,6.442.548,6.808,3.966m38.792,0H242.916s-.676-2.883.511-4.843c1.051-1.731.648-2.722-.129-4.155a7.062,7.062,0,0,0,3.044.572,6.34,6.34,0,0,0,2.685-.946,64.813,64.813,0,0,0,5.145,5.407c1.184.85,6.446.548,6.812,3.966" transform="translate(-122.034 -454.028)" fill="#0e0e38"/>
    <path id="Path_29221" data-name="Path 29221" d="M288.14,349.1s.161.958,2.52.96c0,0,1.981,0,1.985-1.039a6.357,6.357,0,0,0-4.505.079" transform="translate(-172.283 -208.288)" fill="#fff"/>
    <path id="Path_29222" data-name="Path 29222" d="M336.41,489.567a7.162,7.162,0,0,0,2.669-.656c1.123-.6,4.783.362,4.429.85s-2.4-.113-2.6.165a3.377,3.377,0,0,1-.942.624l-3.559-.982" transform="translate(-201.119 -291.955)" fill="#fc9290"/>
    <path id="Path_29223" data-name="Path 29223" d="M428.769,469.329h-61.02A23.82,23.82,0,0,1,343.93,445.51V384.494a23.82,23.82,0,0,1,23.819-23.818h61.02a23.816,23.816,0,0,1,23.815,23.818V445.51a23.817,23.817,0,0,1-23.815,23.819" transform="translate(-205.611 -215.463)" fill="#beceff"/>
    <path id="Path_29224" data-name="Path 29224" d="M459.217,406.644V459.7a13.8,13.8,0,0,1-13.785,13.79H392.375A13.775,13.775,0,0,1,378.59,459.7V406.644a13.789,13.789,0,0,1,13.785-13.79h53.056a13.789,13.789,0,0,1,13.785,13.79" transform="translate(-226.317 -234.686)" fill="#3366fb"/>
    <path id="Path_29225" data-name="Path 29225" d="M447.053,477.268s-.27,8.306-1.333,12.026l-8.411,5.87,31.67,4.739-7.553-10.436s-2.283-11.136-1.083-15.255-13.29,3.056-13.29,3.056" transform="translate(-261.395 -282.526)" fill="#d0a288"/>
    <path id="Path_29226" data-name="Path 29226" d="M461.4,486.544s2.5,6.027,7.219,5.894,5.794-5.467,5.794-5.467l-13.013-.427" transform="translate(-275.786 -290.655)" fill="#b7866a"/>
    <path id="Path_29227" data-name="Path 29227" d="M449.709,438.816s-1.522-7.6-2.585-9.908-1.949-12.578,9.832-13.109c0,0,4.517.531,7-.974,0,0,0,1.506-.62,2.037a7.837,7.837,0,0,1,7.267,2.569c3.189,3.543-2.126,15.948-1.86,18.87l-19.032.515" transform="translate(-266.913 -247.81)" fill="#ac4949"/>
    <path id="Path_29228" data-name="Path 29228" d="M463.581,461.592c-3.418-.06-9.711-4.614-9.711-10.251v-8.793a3.514,3.514,0,0,1,3.189-3.744H470.1a3.513,3.513,0,0,1,3.189,3.744v8.3c0,5.91-5.79,10.814-9.711,10.746" transform="translate(-271.288 -262.136)" fill="#cfa288"/>
    <path id="Path_29229" data-name="Path 29229" d="M453.225,444.289s.02-5.282,4.207-6.1,13.552,2.573,14.881-1.28-18.11-3.785-19.088-1.329,0,8.7,0,8.7" transform="translate(-270.643 -259.182)" fill="#ac4949"/>
    <path id="Path_29230" data-name="Path 29230" d="M439.675,516.077s-.008,0-.012,0a5.9,5.9,0,0,0-1.349-.366v.016a83.677,83.677,0,0,0-9.739-1.856c-.346-.048-.689-.089-1.027-.129a15.093,15.093,0,0,1-5.488,4.9c-.391.193-.781.37-1.18.539-.35.145-.7.29-1.071.431a6.512,6.512,0,0,1-1.345-.334c-.254-.093-.5-.2-.745-.31a16.465,16.465,0,0,1-5.878-5.4c-.467.048-.926.1-1.365.157a46.321,46.321,0,0,0-7.807,1.59h-.008c-.242.028-8.866,1.216-22.063,21.161a13.786,13.786,0,0,0,12.976,9.123h53.056a13.809,13.809,0,0,0,13.033-9.284c-10-15.17-17.147-19.185-19.99-20.235" transform="translate(-227.517 -306.796)" fill="#262267"/>
    <path id="Path_29231" data-name="Path 29231" d="M456.618,508.1a3.38,3.38,0,0,0-1.808,2.182s5.645,5.8,9.333,5.89l-7.525-8.072m7.525,8.072,7.283-8.366a3.423,3.423,0,0,1,1.482,2.617s-5.633,5.971-8.765,5.749" transform="translate(-271.849 -303.355)" fill="#93b3f4"/>
    <path id="Path_29232" data-name="Path 29232" d="M475.285,553.6H468.01c.858-9.771,1.9-19.434,2.408-23.951.1-.918.181-1.623.234-2.078.008-.072.012-.141.02-.2.008-.032.008-.068.012-.093.024-.185.032-.278.032-.278l.729-.012,1.147-.02h0l.483-.008s.008.072.02.221c.008.077.016.177.028.3.008.093.012.2.024.318.044.535.109,1.308.189,2.283.4,4.719,1.18,14.116,1.945,23.517" transform="translate(-279.735 -314.795)" fill="#93b3f4"/>
    <path id="Path_29233" data-name="Path 29233" d="M470.451,520.922a34.757,34.757,0,0,1,5.4-.129.566.566,0,0,1,.435.841c-.576,1.031-1.743,2.818-2.967,2.818-1.715,0-4.393-3.414-2.871-3.531" transform="translate(-280.923 -311.074)" fill="#6d89cf"/>
    <path id="Path_29234" data-name="Path 29234" d="M342.766,493.893a5.407,5.407,0,0,1-6.728,1.759,51.994,51.994,0,0,0-6.015-2.222c-.479-.121-.753-.205-.753-.205l1.538-3.76a.864.864,0,0,0,.157.056c.845.234,5.021.246,7.32,1.474,2.657,1.425,5.6,1.381,4.481,2.9" transform="translate(-196.853 -292.399)" fill="#f1ae91"/>
    <path id="Path_29235" data-name="Path 29235" d="M270.225,431.139l-.644,3.543s-1.208-.113-3.132-.3c-.576-.056-.91-.109-.91-.109-1.538-.169-3.386-.415-5.4-.676h-.024c-3.454-.515-7.324-1.164-10.609-1.969a28.4,28.4,0,0,1-5.729-1.981,3,3,0,0,1-.4-.238c-3.366-2.021-7.71-8.459-11.261-15.452-.491-.966-.958-1.932-1.421-2.875a74.361,74.361,0,0,1-3.974-10.009,28.8,28.8,0,0,1-1.155-4.831,11.618,11.618,0,0,1-.145-1.377c-.02-.25-.036-.5-.048-.733a12.534,12.534,0,0,1,8.773-3.181c.089.153.177.306.266.463,1.844,3.354,3.857,7.73,5.761,12.086,1.055,2.387,2.077,4.779,3.084,6.981.584,1.341,1.155,2.6,1.691,3.752a37.18,37.18,0,0,0,2.73,5.073,13.109,13.109,0,0,0,3.587,2.714,121.346,121.346,0,0,0,11.285,5.725c1.59.733,3.092,1.393,4.34,1.937,2.009.89,3.338,1.457,3.338,1.457" transform="translate(-134.785 -233.538)" fill="#f1ae91"/>
    <path id="Path_29236" data-name="Path 29236" d="M234.354,383.318c-5.331-.982-8.994,3.43-8.994,3.43-.616-7.835,3.189-9.244,3.189-9.244,1.514-.785,3.567,1.772,5.806,5.814" transform="translate(-134.739 -225.431)" fill="#98b7f5"/>
    <path id="Path_29237" data-name="Path 29237" d="M1595.393,657.692h-79.214a3.158,3.158,0,0,1-3.148-3.148v-9.614a3.155,3.155,0,0,1,3.148-3.144h79.214a3.151,3.151,0,0,1,3.144,3.144v9.614a3.155,3.155,0,0,1-3.144,3.148" transform="translate(-904.016 -383.393)" fill="#becefe"/>
    <path id="Path_29238" data-name="Path 29238" d="M1538.15,681.294l-15.722,144.063a.837.837,0,0,1-.769.825,1.444,1.444,0,0,1-1.26-1.683l12.1-143.206h5.649" transform="translate(-908.413 -406.996)" fill="#fdadac"/>
    <path id="Path_29239" data-name="Path 29239" d="M1555.462,681.294l-1.015,9.308c-.7-3.708-5.077-4.095-5.077-4.095l.443-5.214h5.649" transform="translate(-925.725 -406.996)" fill="#15152a"/>
    <path id="Path_29240" data-name="Path 29240" d="M1690.437,826.183a.84.84,0,0,1-.769-.825L1674.328,684.8l-.378-3.5h5.645L1691.7,824.5a1.443,1.443,0,0,1-1.264,1.683" transform="translate(-1000.147 -406.996)" fill="#fdadac"/>
    <path id="Path_29241" data-name="Path 29241" d="M1680.384,690.595c-1.437-4.433-6.051-5.8-6.051-5.8h0l-.378-3.5h5.645l.789,9.3" transform="translate(-1000.147 -406.996)" fill="#15152a"/>
    <path id="Path_29242" data-name="Path 29242" d="M233.7,795.5H153.23a2.526,2.526,0,0,1-2.52-2.516v-5.153a2.529,2.529,0,0,1,2.52-2.52H233.7a2.529,2.529,0,0,1,2.52,2.52v5.153a2.526,2.526,0,0,1-2.52,2.516" transform="translate(-90.184 -469.136)" fill="#becefe"/>
    <path id="Path_29243" data-name="Path 29243" d="M175.83,810.624l-15.718,92.287a.73.73,0,0,1-.769.531c-.757,0-1.345-.5-1.264-1.079l11.664-88.4.439-3.342h5.649" transform="translate(-94.582 -484.256)" fill="#fdadac"/>
    <path id="Path_29244" data-name="Path 29244" d="M193.148,810.624l-1.015,5.963c-.7-2.375-5.073-2.621-5.073-2.621l.439-3.342h5.649" transform="translate(-111.899 -484.256)" fill="#15152a"/>
    <path id="Path_29245" data-name="Path 29245" d="M328.117,903.443a.73.73,0,0,1-.769-.531L311.63,810.624h5.649l.439,3.342,11.664,88.4c.081.576-.507,1.079-1.264,1.079" transform="translate(-186.315 -484.256)" fill="#fdadac"/>
    <path id="Path_29246" data-name="Path 29246" d="M318.064,816.587c-1.437-2.842-6.051-3.716-6.051-3.716v0l-.382-2.242h5.649l.439,3.342.346,2.621" transform="translate(-186.315 -484.256)" fill="#15152a"/>
    <path id="Path_29247" data-name="Path 29247" d="M526.174,140.782h-61.66a24.065,24.065,0,0,1-24.064-24.066V55.055a24.066,24.066,0,0,1,24.064-24.067h61.66a24.069,24.069,0,0,1,24.068,24.067v61.661a24.069,24.069,0,0,1-24.068,24.067" transform="translate(-263.271 -18.512)" fill="#beceff"/>
    <path id="Path_29248" data-name="Path 29248" d="M556.937,77.442v53.614a13.911,13.911,0,0,1-8.91,13c-.157.063-.318.121-.475.174a13.88,13.88,0,0,1-4.55.761H489.39a13.76,13.76,0,0,1-2.078-.157,13.933,13.933,0,0,1-11.853-13.774V77.442a13.93,13.93,0,0,1,13.93-13.93H543a13.931,13.931,0,0,1,13.934,13.93" transform="translate(-284.185 -37.941)" fill="#3366fb"/>
    <path id="Path_29249" data-name="Path 29249" d="M552.614,142.38s-.234,7.3-1.168,10.568l-7.4,5.158,27.833,4.165-6.639-9.17s-2-9.786-.95-13.406-11.68,2.686-11.68,2.686" transform="translate(-325.16 -82.782)" fill="#fbc3a2"/>
    <path id="Path_29250" data-name="Path 29250" d="M565.22,150.531s2.2,5.3,6.345,5.181,5.089-4.8,5.089-4.8l-11.434-.376" transform="translate(-337.807 -89.925)" fill="#fdb082"/>
    <path id="Path_29251" data-name="Path 29251" d="M554.953,108.591s-1.341-6.683-2.275-8.707-1.711-11.055,8.64-11.522c0,0,3.97.467,6.152-.856,0,0,0,1.323-.544,1.79a6.879,6.879,0,0,1,6.381,2.258c2.8,3.114-1.868,14.013-1.635,16.582l-16.721.455" transform="translate(-330.011 -52.274)" fill="#12123c"/>
    <path id="Path_29252" data-name="Path 29252" d="M575.677,111.87v7.293a8.65,8.65,0,0,1-.753,3.467h0a11.1,11.1,0,0,1-3.732,4.505,7.2,7.2,0,0,1-4.046,1.471,7.833,7.833,0,0,1-3.841-1.449,10.849,10.849,0,0,1-4.316-5.316l-.012-.033-.024-.093a6.919,6.919,0,0,1-.338-2.115V111.87a3.082,3.082,0,0,1,2.8-3.287h11.458a3.086,3.086,0,0,1,2.806,3.287" transform="translate(-333.858 -64.866)" fill="#fac2a1"/>
    <path id="Path_29253" data-name="Path 29253" d="M536.353,176.176s-6.534-1.408-9.461-1.748a13.556,13.556,0,0,1-6.8,5.287c-3.8-.525-7-5.331-7-5.439a39.276,39.276,0,0,0-8.064,1.663h0c-.266.033-10.387,1.442-25.175,28.2a13.924,13.924,0,0,0,10.085,6.985c1.9-1.646,6-5.2,9.208-7.988-.036.9-.044,1.714-.024,2.425.056,1.916.117,3.817.161,5.72h40.35c-.076-.965-.141-1.9-.185-2.788-.137-2.773-.266-5.306-.387-7.618a.316.316,0,0,0,0-.061c0-.025,0-.048,0-.073,0,0,0,.005.008.008.588.506,1.28,1.112,2.041,1.77.149.131.306.265.459.4.137.116.27.235.411.356.189.161.378.328.572.5.346.3.7.6,1.047.91.161.141.326.282.487.423.085.076.173.149.262.225s.2.172.3.259c.072.064.149.126.221.192.173.149.346.3.515.448.141.124.282.245.423.366.113.1.233.2.35.3.423.37.837.731,1.24,1.081l.479.413c.165.144.33.285.487.421.113.1.221.195.334.29.048.043.1.086.145.126.169.146.33.29.491.424s.322.282.471.413c.064.056.129.108.189.161s.129.114.193.167c.157-.053.318-.111.475-.174a13.952,13.952,0,0,0,8.463-9.484c-13.85-23.848-22.76-24.561-22.76-24.561" transform="translate(-286.808 -104.11)" fill="#96b5f4"/>
    <path id="Path_29254" data-name="Path 29254" d="M558.042,113.4s.016-4.644,3.7-5.358,11.909,2.263,13.077-1.123-15.911-3.328-16.773-1.168,0,7.649,0,7.649" transform="translate(-333.29 -62.268)" fill="#12123c"/>
    <path id="Path_29255" data-name="Path 29255" d="M532.638,252.88h-4.783c-.044-1.9-.1-3.8-.161-5.72-.02-.711-.012-1.525.024-2.425.008-.2.016-.406.024-.615q.073.114.242.386c.713,1.165,2.665,4.414,4.654,8.375" transform="translate(-315.383 -145.834)" fill="#6d89cf"/>
    <path id="Path_29256" data-name="Path 29256" d="M578.147,141.839v3.214a7.2,7.2,0,0,1-4.046,1.471,7.834,7.834,0,0,1-3.841-1.449v-3.235a3.273,3.273,0,0,1,3.261-3.263h1.361a3.274,3.274,0,0,1,3.265,3.263" transform="translate(-340.818 -82.783)" fill="#12123c"/>
    <path id="Path_29257" data-name="Path 29257" d="M638.442,248.045c-.157.063-.318.121-.475.174-.064-.053-.129-.108-.193-.167s-.125-.105-.189-.161c-.149-.131-.31-.27-.471-.413s-.322-.277-.491-.424c-.048-.04-.1-.083-.145-.126-.113-.1-.221-.192-.334-.29-.157-.136-.322-.277-.487-.421l-.479-.413c-.4-.351-.817-.711-1.24-1.081-.117-.1-.237-.2-.35-.3-.141-.121-.282-.242-.423-.366-.169-.148-.342-.3-.515-.448-.073-.065-.149-.128-.221-.192-.1-.088-.2-.174-.3-.259s-.177-.149-.262-.225c-.161-.141-.326-.282-.487-.423-.35-.308-.7-.61-1.047-.91-.193-.169-.383-.335-.572-.5-.141-.121-.274-.24-.411-.356-.153-.136-.31-.269-.459-.4-.761-.658-1.453-1.263-2.041-1.77-.012-.012-.028-.023-.04-.035a.355.355,0,0,1,.036-.025c.382-.27,3.873-2.574,6.075,1.321a92.247,92.247,0,0,0,5.52,8.211" transform="translate(-374.6 -141.934)" fill="#6d89cf"/>
    <path id="Path_29258" data-name="Path 29258" d="M575.422,142.116c-1.542,3.51-5.141,6.023-7.778,5.976-2.532-.046-6.865-2.9-8.157-6.765l-.012-.033-.024-.093s2.722,2.322,4.521,1.172h7.561a3.739,3.739,0,0,0,3.889-.258" transform="translate(-334.36 -84.352)" fill="#12123c"/>
    <path id="Path_29259" data-name="Path 29259" d="M578.4,143.688H576.77c-.375,0-.85-.612-.85-.986a1.791,1.791,0,0,1,.85-.374H578.4a1.361,1.361,0,0,1,1.006.532,1.119,1.119,0,0,1-1.006.827" transform="translate(-344.199 -85.025)" fill="#fc9290"/>
    <path id="Path_29260" data-name="Path 29260" d="M852.428,135.219h-61.66A24.067,24.067,0,0,1,766.7,111.152V49.492a24.066,24.066,0,0,1,24.068-24.067h61.66a24.066,24.066,0,0,1,24.064,24.067v61.66a24.066,24.066,0,0,1-24.064,24.067" transform="translate(-458.168 -15.189)" fill="#beceff"/>
    <path id="Path_29261" data-name="Path 29261" d="M883.193,71.878V125.49a13.923,13.923,0,0,1-13.93,13.93H815.65a13.932,13.932,0,0,1-13.93-13.93V71.878a13.932,13.932,0,0,1,13.93-13.933h53.612a13.932,13.932,0,0,1,13.93,13.933" transform="translate(-479.089 -34.615)" fill="#3366fb"/>
    <path id="Path_29262" data-name="Path 29262" d="M866.875,125.576s-8.745-.438-8.99-5.485-7.473-8.729-5.379-12.781c2.565-4.969.226-9.747,3.467-13.089,3.567-3.681,8.076-1.682,10.456-3.827s6.732-4.122,11.02-1.472,7.565,1.224,10.387,3.776c3.116,2.82,1.933,6.369,4.505,8.3,2.355,1.767,1.393,6.594-.592,10.515-1.429,2.827,1.868,5.476-3.793,8.725-2.351,1.353-1.844,4.754-8.994,5.341-3.217.265-10.206-1.244-12.086,0" transform="translate(-509.201 -52.361)" fill="#12123c"/>
    <path id="Path_29263" data-name="Path 29263" d="M875.682,164.63s-.254,7.887-1.264,11.42l-7.988,5.573,30.071,4.5-7.171-9.91s-2.166-10.574-1.031-14.486-12.618,2.9-12.618,2.9" transform="translate(-517.746 -95.891)" fill="#f1ae91"/>
    <path id="Path_29264" data-name="Path 29264" d="M889.3,173.438s2.38,5.725,6.861,5.6,5.5-5.192,5.5-5.192l-12.356-.407" transform="translate(-531.408 -103.61)" fill="#a77b60"/>
    <path id="Path_29265" data-name="Path 29265" d="M891.38,149.746c-3.245-.057-9.22-4.379-9.22-9.731v-8.352a3.331,3.331,0,0,1,3.028-3.553h12.384a3.331,3.331,0,0,1,3.028,3.553v7.88c0,5.612-5.5,10.27-9.22,10.2" transform="translate(-527.142 -76.531)" fill="#f1ae91"/>
    <path id="Path_29266" data-name="Path 29266" d="M867.943,201.273h0a81.422,81.422,0,0,0-10.222-2.01c-2.794,3.706-4.8,4.695-7.348,5.7-4.1-.567-7.565-5.751-7.565-5.867a42.4,42.4,0,0,0-8.713,1.786l-.012,0c-.362.046-8.354,1.286-20.57,19.527a13.86,13.86,0,0,0,9.184,3.456h47.963c0-.043,0-.084,0-.126h5.653a13.911,13.911,0,0,0,10.641-4.936c-8.584-14.738-19-17.535-19-17.535" transform="translate(-486.132 -118.939)" fill="#ac4949"/>
    <path id="Path_29267" data-name="Path 29267" d="M882.13,129.62s2.255-6.877,9.634-5.8,8.02,2.65,8.805,4.479,2.3-6.688,2.3-6.688l-8.709-2.587s-10.532,1.2-11.289,2.965l-.761,1.767.02,5.868m17.759,2.581a2.831,2.831,0,0,1-2.54,2.158,7.614,7.614,0,0,1-2.174.1h-.012c-1.079,0-1.848-.63-2.412-1.981a3.6,3.6,0,0,1-.27-1.049v0c.072.03.149.064.221.1a.155.155,0,0,0,.209-.064.157.157,0,0,0-.064-.209,2.818,2.818,0,0,0-.366-.157v0a1.118,1.118,0,0,1,.181-.579,1.485,1.485,0,0,1,1.329-.522h3.917a2.117,2.117,0,0,1,1.667.7A1.765,1.765,0,0,1,899.889,132.2Zm-9.667-.746a3.846,3.846,0,0,1-.27,1.024c-.564,1.351-1.329,1.981-2.408,1.981h-.02a7.612,7.612,0,0,1-2.174-.1,2.825,2.825,0,0,1-2.532-2.158,1.738,1.738,0,0,1,.31-1.507,2.115,2.115,0,0,1,1.663-.7h3.921a1.493,1.493,0,0,1,1.333.522,1.211,1.211,0,0,1,.181.608v0a3.193,3.193,0,0,0-.342.127.154.154,0,0,0-.076.2.16.16,0,0,0,.141.09.155.155,0,0,0,.064-.014s.081-.036.209-.08Zm9.554-.925a2.38,2.38,0,0,0-1.868-.792h-3.917a1.725,1.725,0,0,0-1.546.636,1.387,1.387,0,0,0-.221.647v0a3.638,3.638,0,0,0-1.739.031v0a1.416,1.416,0,0,0-.225-.678,1.725,1.725,0,0,0-1.546-.636h-3.921a2.363,2.363,0,0,0-1.86.792,1.984,1.984,0,0,0-.366,1.722c.447,2.216,3,2.5,4.272,2.5a7.1,7.1,0,0,0,.713-.033c1.192,0,2.033-.683,2.641-2.14a3.749,3.749,0,0,0,.3-1.2h0a3.376,3.376,0,0,1,1.727-.035h0a3.73,3.73,0,0,0,.3,1.238c.608,1.457,1.449,2.138,2.641,2.14a7.05,7.05,0,0,0,.717.033c1.272,0,3.825-.283,4.268-2.5a2.013,2.013,0,0,0-.362-1.724Z" transform="translate(-527.112 -71.101)" fill="#12123c"/>
    <path id="Path_29268" data-name="Path 29268" d="M1230.827,117.473l-71.774-8.277a18.775,18.775,0,0,1-16.5-20.8l8.278-71.77a18.774,18.774,0,0,1,20.8-16.5L1243.4,8.4a18.775,18.775,0,0,1,16.5,20.8l-8.278,71.77a18.773,18.773,0,0,1-20.8,16.5" transform="translate(-682.623)" fill="#beceff"/>
    <path id="Path_29269" data-name="Path 29269" d="M1267.43,56.694l-6.144,53.259a13.9,13.9,0,0,1-1.957,5.677v0a13.986,13.986,0,0,1-6.808,5.7,13.833,13.833,0,0,1-5.174.956h0a13.777,13.777,0,0,1-1.494-.091l-22.579-2.6-4.465-.514-14.591-1.684-1.876-.217-9.747-1.125a13.925,13.925,0,0,1-11.325-8.624c-.121-.3-.234-.6-.33-.9a14.058,14.058,0,0,1-.592-5.909l6.144-53.259a13.933,13.933,0,0,1,15.436-12.244l53.262,6.141a13.937,13.937,0,0,1,12.244,15.438" transform="translate(-705.219 -20.922)" fill="#3366fb"/>
    <path id="Path_29270" data-name="Path 29270" d="M1244.887,86.236a.658.658,0,0,0-.024-.126c-.169-.973-.362-1.939-.576-2.889v0c1.184-7.615-1.739-10.869-4.268-12.521h0c-1.357-2.654-2.81-4.525-4.187-5.16a13.512,13.512,0,0,0-7.4-.779,3.427,3.427,0,0,1,1.474-.857c-1.26-.081-3.933,1.389-3.933,1.389-17.888-5.215-18.46,20.523-17.6,26.419s-5.157,8.352-13.782,13.782c-7.831,4.933-12.05,10.253-14.317,14.47a13.556,13.556,0,0,0,.672,3.817,2.676,2.676,0,0,1,.846-.549c-.016.052-.23.633-.516,1.452a13.926,13.926,0,0,0,11.326,8.624l9.747,1.124,1.876.217,14.591,1.684c1.53-2.173,3.2-4.421,4.936-6.653a145.359,145.359,0,0,1,12.847-14.664c1.324-1.283,2.581-2.4,3.74-3.323.04-.033.085-.068.129-.1a17,17,0,0,0,1.377-3.353,41.251,41.251,0,0,0,1.49-8.977,39.647,39.647,0,0,1-.846,9.065,16.182,16.182,0,0,1-.6,1.994,11.058,11.058,0,0,0,1.369-1.875c3.04-5.211,3.076-13.951,1.623-22.207" transform="translate(-705.235 -38.171)" fill="#060632"/>
    <path id="Path_29271" data-name="Path 29271" d="M1299.387,158.733c.056.033-5.886,2.3-9.973.657-3.841-1.54-5.842-6.982-5.786-6.987,1.719-.141,2.472-2.393,3.579-12.318l.741.238,12.481,4s-.757,3.985-1.2,7.77c-.375,3.178-.531,6.216.157,6.639" transform="translate(-766.973 -83.685)" fill="#cfa288"/>
    <path id="Path_29272" data-name="Path 29272" d="M1283.33,75.813s5.753-7.26,14.224-1.546c0,0-4.686-.409-14.224,1.546" transform="translate(-766.796 -43.057)" fill="#a13934"/>
    <path id="Path_29273" data-name="Path 29273" d="M1306.841,144.676s-.757,3.985-1.2,7.77c-7.122-1.025-10.15-7.979-11.281-11.771l12.481,4" transform="translate(-773.385 -84.038)" fill="#b7866a"/>
    <path id="Path_29274" data-name="Path 29274" d="M1302.376,114.433s-16.938,1.709-17.84-8.853-3.692-17.457,7.082-18.994S1304.84,88.9,1306,92.351s.757,21.365-3.624,22.082" transform="translate(-766.919 -51.517)" fill="#cfa288"/>
    <path id="Path_29275" data-name="Path 29275" d="M1291.885,82.143s-3.6,12.785-10.573,15.218-10.222.784-10.222.784a20.249,20.249,0,0,0,5.6-12.478s11.2-9.128,15.2-3.524" transform="translate(-759.484 -47.984)" fill="#060632"/>
    <path id="Path_29276" data-name="Path 29276" d="M1320.09,84.194s3.7,2.474,4.775,5.093,1.916,8.125,3.515,7.8c0,0,2.79-8.719-1.542-13.153-4.6-4.7-6.748.259-6.748.259" transform="translate(-788.756 -48.932)" fill="#060632"/>
    <path id="Path_29277" data-name="Path 29277" d="M1284.9,174.79c-1.76-2.206-5.355-3.353-8.882-3.945-.258-.041-.511-.081-.769-.119-.213-.03-.431-.06-.644-.088-1.486-.194-2.911-.3-4.127-.348-.185-.257-.294-.416-.326-.464-.012-.01-.012-.015-.012-.015l-14.321-1.16-.153-.013-.028,0c-.008,0-.02,0-.032,0-1.079-.116-15.915-1.588-18.782,3.645-1.876,3.421-1.916,9.965-1.027,17.228-.27,2.463-.491,4.969-.688,7.323l1.876.217,14.591,1.684,4.465.514,22.579,2.6a13.647,13.647,0,0,0,1.494.091h0a13.821,13.821,0,0,0,5.174-.955,13.985,13.985,0,0,0,6.808-5.7v0c-2.17-8.888-4.888-17.591-7.2-20.493" transform="translate(-737.99 -100.574)" fill="#a13934"/>
    <path id="Path_29278" data-name="Path 29278" d="M1246.46,468.636h-61.628a24.054,24.054,0,0,1-24.052-24.052V382.956a24.054,24.054,0,0,1,24.052-24.053h61.628a24.054,24.054,0,0,1,24.052,24.053v61.628a24.054,24.054,0,0,1-24.052,24.052" transform="translate(-693.586 -214.404)" fill="#beceff"/>
    <path id="Path_29279" data-name="Path 29279" d="M1277.208,405.331v53.58a13.895,13.895,0,0,1-13.242,13.906c-.225.012-.451.02-.68.02H1209.7c-.093,0-.189,0-.286-.008s-.185,0-.274-.008a13.908,13.908,0,0,1-13.363-13.91v-53.58A13.927,13.927,0,0,1,1209.7,391.4h53.584a13.925,13.925,0,0,1,13.922,13.926" transform="translate(-714.495 -233.82)" fill="#3366fb"/>
    <path id="Path_29280" data-name="Path 29280" d="M1260.4,480.279s-.31,9.53-1.526,13.8l-9.655,6.736,36.336,5.435-8.664-11.974s-2.617-12.775-1.244-17.5-15.247,3.507-15.247,3.507" transform="translate(-746.419 -283.943)" fill="#f1ae91"/>
    <path id="Path_29281" data-name="Path 29281" d="M1276.86,490.924s2.875,6.917,8.286,6.764,6.643-6.273,6.643-6.273l-14.929-.491" transform="translate(-762.931 -293.272)" fill="#ea8989"/>
    <path id="Path_29282" data-name="Path 29282" d="M1263.448,436.165s-1.747-8.729-2.967-11.37-2.234-14.434,11.285-15.042c0,0,5.182.608,8.028-1.119,0,0,0,1.727-.713,2.339a8.988,8.988,0,0,1,8.338,2.947c3.656,4.066-2.44,18.295-2.134,21.648l-21.838.6" transform="translate(-752.752 -244.113)" fill="#12123c"/>
    <path id="Path_29283" data-name="Path 29283" d="M1279.37,462.3c-3.921-.068-11.14-5.29-11.14-11.756V440.446c0-2.359,1.647-4.292,3.66-4.292h14.961c2.013,0,3.66,1.933,3.66,4.292v9.522c0,6.78-6.643,12.409-11.14,12.328" transform="translate(-757.776 -260.553)" fill="#f1ae91"/>
    <path id="Path_29284" data-name="Path 29284" d="M1267.489,442.44s.02-6.063,4.823-6.993,15.553,2.955,17.075-1.465-20.775-4.348-21.9-1.526,0,9.985,0,9.985" transform="translate(-757.035 -257.16)" fill="#12123c"/>
    <path id="Path_29285" data-name="Path 29285" d="M1280.79,550.808h-50.854c-.093,0-.189,0-.286-.008,1.284-11.648,4.046-25.7,6.253-26.621,0,0,.254-.1.741-.245a.031.031,0,0,1,.012,0,50.583,50.583,0,0,1,7.155-1.578h.024q1.54-.242,3.35-.427c0,.141,4.179,6.253,9.139,6.937,3.084-1.22,5.5-2.259,8.878-6.74,1.111.133,2.251.286,3.418.467,2.83.435,5.818,1.027,8.934,1.812.37.093.741.189,1.115.29h0c.149.032.294.077.443.117,0,0,.036.153.125,1.063v0c.189,2.069.644,8.036,1.55,24.934" transform="translate(-734.728 -311.791)" fill="#6d89cf"/>
    <path id="Path_29286" data-name="Path 29286" d="M1216.914,524.631a.117.117,0,0,0-.036.008,8.053,8.053,0,0,0-.777.225c-.02.008-.04.012-.052.016s-.036.012-.048.016a.09.09,0,0,1-.028.008c-2.685.934-9.4,4.34-18.782,16.555a13.918,13.918,0,0,0,12.8,9.965c.089.008.181.008.274.008s.193.008.286.008h13.5c.145-8.6.25-16.088.314-21.222.028-2.267.048-4.07.064-5.314s.02-1.921.02-1.921h-.024a53.326,53.326,0,0,0-7.5,1.647m42.81.809a7.687,7.687,0,0,0-1.385-.4s-.008,0-.008,0a81.526,81.526,0,0,0-9.1-1.82v0c0,.073.008,1.623.028,4.3v0c.016,1.711.036,3.889.06,6.438.044,4.743.109,10.766.2,17.481h14.615c.229,0,.455-.008.68-.02a13.939,13.939,0,0,0,12.7-10.045c-8.773-11.487-15.037-14.921-17.787-15.935" transform="translate(-715.337 -312.424)" fill="#1a165e"/>
    <path id="Path_29287" data-name="Path 29287" d="M1290.747,459.528c-.258,1.276-1.22,2.094-2.854,2.424a8.551,8.551,0,0,1-2.444.113h-.016c-1.212,0-2.077-.709-2.71-2.227a4.2,4.2,0,0,1-.306-1.18,1.968,1.968,0,0,1,.25.113.174.174,0,0,0,.165-.306,3.333,3.333,0,0,0-.419-.177v0a1.414,1.414,0,0,1,.205-.652,1.685,1.685,0,0,1,1.5-.588h4.4a2.391,2.391,0,0,1,1.876.785A1.991,1.991,0,0,1,1290.747,459.528Zm-10.871-.841a4.159,4.159,0,0,1-.3,1.151c-.632,1.518-1.5,2.227-2.709,2.227h-.016a8.577,8.577,0,0,1-2.448-.113c-1.631-.33-2.593-1.147-2.851-2.424a1.992,1.992,0,0,1,.35-1.7,2.383,2.383,0,0,1,1.872-.785h4.4a1.688,1.688,0,0,1,1.5.588,1.338,1.338,0,0,1,.205.684c-.222.072-.367.137-.386.145a.173.173,0,0,0,.072.33.158.158,0,0,0,.073-.016S1279.736,458.735,1279.876,458.687Zm10.742-1.039a2.664,2.664,0,0,0-2.1-.894h-4.4a1.948,1.948,0,0,0-1.739.717,1.642,1.642,0,0,0-.25.729,4.14,4.14,0,0,0-1.957.036,1.6,1.6,0,0,0-.254-.765,1.938,1.938,0,0,0-1.739-.717h-4.4a2.656,2.656,0,0,0-2.094.894,2.255,2.255,0,0,0-.415,1.937c.5,2.488,3.374,2.806,4.8,2.806a7.437,7.437,0,0,0,.805-.036c1.341,0,2.283-.769,2.971-2.408a4.231,4.231,0,0,0,.33-1.349,3.774,3.774,0,0,1,1.941-.04,4.226,4.226,0,0,0,.338,1.389c.688,1.639,1.631,2.408,2.971,2.408a7.443,7.443,0,0,0,.805.036c1.429,0,4.3-.318,4.8-2.806a2.241,2.241,0,0,0-.411-1.937Z" transform="translate(-759.554 -272.859)" fill="#ac4949"/>
    <path id="Path_29288" data-name="Path 29288" d="M787.515,475.407H716.043a27.9,27.9,0,0,1-27.893-27.9V376.042a27.9,27.9,0,0,1,27.893-27.9h71.472a27.9,27.9,0,0,1,27.893,27.9V447.51a27.9,27.9,0,0,1-27.893,27.9" transform="translate(-411.243 -207.977)" fill="#beceff"/>
    <path id="Path_29289" data-name="Path 29289" d="M823.171,401.987v62.139A16.15,16.15,0,0,1,813.086,479.1c-.346.141-.7.27-1.059.387a16.081,16.081,0,0,1-5,.793H744.879a16.15,16.15,0,0,1-16.149-16.149V401.987a16.151,16.151,0,0,1,16.149-16.153h62.143a16.151,16.151,0,0,1,16.149,16.153" transform="translate(-435.485 -230.492)" fill="#3366fb"/>
    <path id="Path_29290" data-name="Path 29290" d="M818.888,426.184h0A16.124,16.124,0,0,0,812.78,426a19.674,19.674,0,0,0-8.173,3.092c-3.148,2.126-7.694,6.716-2.613,19.309l2.408,4.332c-.8,9.433-4.662,9.433-4.662,9.433a8.614,8.614,0,0,0,2.5.833s1.192-.455,1.425-1.111a4.186,4.186,0,0,1-.539,1.361s6.55.624,9.824-1.852c1.776-1.345,3.724-4.5,4.98-7.714l4.956.35a9.954,9.954,0,0,1-3.092,7.114s6.112.6,8.181-1.1a5.782,5.782,0,0,1-.785,1.2s6.832.246,9.655-1.884,1.006-37.093-17.961-33.183" transform="translate(-477.889 -254.367)" fill="#15115b"/>
    <path id="Path_29291" data-name="Path 29291" d="M833.2,548.1H784.817a47.968,47.968,0,0,1-.721-10.617,21.959,21.959,0,0,1,4.344-11.1,37.894,37.894,0,0,1,8.056-8.173s.113-.024.3-.056c.346-.06.946-.157,1.582-.213h.008c.6-.318.846-2.508.918-5.073.024-.717.028-1.458.028-2.194,0-.64-.012-1.28-.028-1.912,0-.3-.012-.588-.02-.878,0-.085,0-.165-.008-.246,0-.125-.008-.246-.012-.366,0-.093,0-.185-.012-.278,0-.149-.008-.29-.012-.431-.008-.189-.016-.378-.024-.56,0-.04,0-.08,0-.121q-.012-.26-.024-.507c-.008-.2-.02-.4-.028-.584l-.008-.145q-.024-.453-.048-.833c0-.068-.008-.137-.008-.2s-.008-.149-.012-.221-.008-.137-.012-.2c-.012-.213-.028-.391-.036-.535,0-.032,0-.064,0-.093a.967.967,0,0,1-.008-.1c-.008-.133-.012-.205-.012-.205l8.165-1.614,5.6-1.107.656-.129.165-.032v.008a49.562,49.562,0,0,0,.31,5.8,39.333,39.333,0,0,0,.688,4.1v0c1.019,4.513,2.6,7.231,3.748,7.678a.668.668,0,0,0,.117.04c5.568,1.143,14.031,15.589,14.74,31.094" transform="translate(-468.519 -298.319)" fill="#a77b60"/>
    <path id="Path_29292" data-name="Path 29292" d="M821.25,502.5s.31,4.328.322,8.411c7.7-.217,11.773-7.243,13.439-11.136L821.25,502.5" transform="translate(-490.756 -298.558)" fill="#786157"/>
    <path id="Path_29293" data-name="Path 29293" d="M805.85,470.51s18.222.3,18.234-11.052,2.375-18.955-9.26-19.627-13.9,3.656-14.828,7.444,1.111,22.864,5.854,23.235" transform="translate(-477.929 -262.708)" fill="#a77b60"/>
    <path id="Path_29294" data-name="Path 29294" d="M816.53,435.819s4.988,13.318,12.646,15.287,10.979-.085,10.979-.085a21.7,21.7,0,0,1-7.09-12.811s-12.771-8.733-16.535-2.392" transform="translate(-487.936 -258.973)" fill="#15115b"/>
    <path id="Path_29295" data-name="Path 29295" d="M805.909,438.7s-3.724,2.975-4.634,5.866-1.317,8.841-3.052,8.64c0,0-3.76-9.055.467-14.176,4.477-5.427,7.219-.33,7.219-.33" transform="translate(-476.079 -260.779)" fill="#15115b"/>
    <path id="Path_29296" data-name="Path 29296" d="M817.88,437.664s3.555,13.947,13.218,18.411c0,0-9.663-8.568-10.484-17.775s-2.734-.636-2.734-.636" transform="translate(-488.742 -259.288)" fill="#15115b"/>
    <path id="Path_29297" data-name="Path 29297" d="M841.549,555.284c-.31-.741-.62-1.474-.918-2.19l-.451-1.071a.123.123,0,0,0-.008-.028c-4.215-10-7.549-17.55-7.875-18.1-.942-1.586-13.777-3.165-15.658-3.152-1.365,0-2.114-4.521-2.416-7a.917.917,0,0,0-1.425-.648c-.137.089-.27.181-.407.266l-.5.322-.507.3c-.117.064-.23.129-.342.193-.129.073-.258.141-.386.209-.113.064-.234.125-.35.185s-.233.117-.35.177l-.35.165c-.1.044-.185.089-.278.129-.173.081-.342.157-.511.226-.125.052-.246.1-.366.153-.085.036-.173.072-.258.1-.471.185-.938.354-1.4.5a19.435,19.435,0,0,1-9.683.91c-.048-.016-.1-.028-.153-.04a1.491,1.491,0,0,0-1.82,1.767c.282,1.284.354,2.69-.37,3.4-3.257.725-11.193,2.75-12.678,5.572-1.067,2.025-1.168,13.943-1.743,24.535h57.513a16.081,16.081,0,0,0,5-.793c.358-.117.713-.246,1.059-.386-.8-1.949-1.594-3.865-2.367-5.713" transform="translate(-466.317 -312.394)" fill="#96b5f4"/>
    <path id="Path_29298" data-name="Path 29298" d="M852.013,562.179H844.3c1.953-3.229,3.813-5.576,4.888-5.709.926-.109,1.908,2.315,2.826,5.709m-7.465-31.436s-9.61,6.088-16.878,4.646c0,0-1.747-1.1.66-2.21,2.259-1.039,7.517-4.115,6.365-7.146a23.746,23.746,0,0,0,6.011-2.935.918.918,0,0,1,1.425.648c.3,2.476,1.051,7,2.416,7m99.719,33.489S958.9,579.2,959.611,584.975s-7.054,14.8-7.054,14.8l-8.29-35.543" transform="translate(-494.225 -312.396)" fill="#6d89cf"/>
    <path id="Path_29299" data-name="Path 29299" d="M1072.29,1015.667s-.5,8.137-2.077,8.254c-.209.016-7.984.016-7.984.016l-9.928-.06a3.217,3.217,0,0,1,2.967-2.895c2.9-.507,7.758-2.545,9.514-6.382,1.848-4.034,7.509,1.067,7.509,1.067m22.108,0s-.5,8.137-2.078,8.254c-.209.016-7.984.016-7.984.016l-9.928-.06a3.216,3.216,0,0,1,2.967-2.895c2.9-.507,7.758-2.545,9.514-6.382,1.852-4.034,7.509,1.067,7.509,1.067" transform="translate(-628.782 -605.181)" fill="#060632"/>
    <path id="Path_29300" data-name="Path 29300" d="M1074.65,783.865s2.593,16.6,12.28,46.079,11,42.238,11,42.238l10.388-.294s.088-32.209-4.372-47.029-.962-53.435-.962-53.435l-28.336,12.441" transform="translate(-642.133 -460.838)" fill="#060632"/>
    <path id="Path_29301" data-name="Path 29301" d="M1062.078,773.684a403.188,403.188,0,0,0,3.962,55.742c4.328,30.719,2.863,43.76,2.863,43.76l10.367.346s6.2-30.731,4.421-46.107,8.483-52.767,8.483-52.767l-30.1-.974" transform="translate(-634.619 -462.189)" fill="#15115b"/>
    <path id="Path_29302" data-name="Path 29302" d="M1091.9,609.9l-5.524,3.624-7.984-1.486c.113-.648.64-3.318,1.119-5.737.028-.141.056-.286.085-.427.411-2.057.765-3.825.765-3.825l7.457-3.289,2.782-1.228c-.008.044-.217,2.287-.245,2.613a18.979,18.979,0,0,0,1.546,9.755" transform="translate(-644.367 -356.959)" fill="#904434"/>
    <path id="Path_29303" data-name="Path 29303" d="M1078.733,619.943c.157-.068,9.615-2.859,10.641-2.52s1.635,2.327,1.635,2.327l-15.468,3.5a7.658,7.658,0,0,1,3.193-3.305" transform="translate(-642.665 -368.823)" fill="#6d89cf"/>
    <path id="Path_29304" data-name="Path 29304" d="M1093.527,686.78c-1.606,7.315-28.288,8.185-35.168,1.542-.781-.753-.821-4.276-.523-9.023.576-9.276,2.428-23.227,2.5-30.357a56.656,56.656,0,0,1,1.14-10.158,82.416,82.416,0,0,1,3.386-12.163s13.032-4.215,15.468-3.5c11.752,3.454,14.8,56.346,13.2,63.657" transform="translate(-631.986 -372.196)" fill="#98b7f5"/>
    <path id="Path_29305" data-name="Path 29305" d="M1058.09,700.6c.576-9.276,2.428-23.227,2.5-30.357a56.669,56.669,0,0,1,1.139-10.158l7.839-1.385s7.666,31.307-11.479,41.9" transform="translate(-632.241 -393.501)" fill="#6d89cf"/>
    <path id="Path_29306" data-name="Path 29306" d="M1065.317,728.853a1.842,1.842,0,0,1-.588,2.134,3.581,3.581,0,0,0-1.594,3.261c.258,1.019,2.722,2.673,3.575,2.408s2.589-1.606,2.4-2.142,1.168-4.7-.914-6.3-2.883.644-2.883.644" transform="translate(-635.224 -434.678)" fill="#fc9290"/>
    <path id="Path_29307" data-name="Path 29307" d="M1056.42,627.274s-7.646,1.429-13.741,10.408-10.1,15.654-8.978,18.891,11.354,14.462,13.117,14.462,4.61-1.284,4.771-4.171c0,0-7.2-10.794-5.785-12.413.608-.688,9.353-7.791,10.6-4.582,2.066,5.306.016-22.595.016-22.595" transform="translate(-617.558 -374.725)" fill="#98b7f5"/>
    <path id="Path_29308" data-name="Path 29308" d="M1091.453,602.068c-1.639,2.774-7.738,5.173-10.283,6.055.028-.141.056-.286.085-.427.411-2.057.765-3.825.765-3.825l7.456-3.289c1.651-.024,2.653.346,1.977,1.486" transform="translate(-646.028 -358.779)" fill="#7b3126"/>
    <path id="Path_29309" data-name="Path 29309" d="M1074.073,578.294s12.01,3.748,14.228-3.768,5.262-12.094-2.311-14.8-9.921-.282-11.269,2.045-3.716,15.36-.648,16.527" transform="translate(-640.892 -333.656)" fill="#934435"/>
    <path id="Path_29310" data-name="Path 29310" d="M1077.4,554.953s.765,8.745,2.577,8.366,3.446-.66,3.185,1.977-1.5,6.824,4.078,7.291,12.308-15.054,10.778-17.775c-4.421-7.855-27-9.437-20.618.141" transform="translate(-643.104 -327.567)" fill="#15115b"/>
    <path id="Path_29311" data-name="Path 29311" d="M1579.44,200.3s-5.484,6.5-12.465,3.783a21.136,21.136,0,0,1-1.522-6.31c0-.329-.008-.649-.012-.953-.04-3.016-.141-4.707-.141-4.707l.008,0c.318-.132,10.673-4.384,10.665-4.03-.177,8.155,3.467,12.219,3.467,12.219" transform="translate(-935.241 -112.344)" fill="#f0ad90"/>
    <path id="Path_29312" data-name="Path 29312" d="M1574.93,192.826a16.2,16.2,0,0,1-9.489,6.8c-.04-3.016-.141-4.707-.141-4.707l.008,0c.286-.076,9.92-2.631,9.622-2.086" transform="translate(-935.241 -115.146)" fill="#c99d84"/>
    <path id="Path_29313" data-name="Path 29313" d="M1557.23,168.869s11.643,2.738,13.238-4.541,4.167-11.827-3.2-13.883-9.425.4-10.548,2.7-2.48,14.819.511,15.719" transform="translate(-929.337 -89.414)" fill="#fac2a1"/>
    <path id="Path_29314" data-name="Path 29314" d="M1564.288,157.843c.157.1,2.665.872,7.408-8.582a8.236,8.236,0,0,0-.483-7.531c-1.735-2.836-7.9-5.066-13.008-6.037s-6.345,1.908-7.549,4.8c-1.264,3.037-4.916,5.537-4.916,5.537,4.409,2.464,9.723-1.06,11.563-.481s2.492,3.48,2.629,4.41.35,1.7,2.665.872,1.047,3.28.677,4.066c0,0-.314,2.094,1.014,2.944" transform="translate(-923.556 -80.947)" fill="#a83f3f"/>
    <path id="Path_29315" data-name="Path 29315" d="M1593.481,615.981h7.05c1.478,0,3.12-1.482,3.535-4.191s3.447-4.191,4.107-6.41-2.714-5.339-2.714-5.339l-.564-.725-.584-.753-5.584,1.313s-.141,1.329-.226,3.024c-.06,1.224-.092,2.637-.024,3.877.165,2.959-.829,6.144-3.454,6.72s-1.542,2.484-1.542,2.484m-49.091,0h18.693a1.758,1.758,0,0,0,.395-.117c1.248-.624.858-5.4.709-6.881-.028-.27-.048-.431-.048-.431s-6.575-5.258-7.477-1.232c-.032.125-.064.25-.1.37-1.143,3.768-6.244,5.479-9.187,5.955-2.255.366-2.838,1.679-2.987,2.335" transform="translate(-922.75 -357.574)" fill="#12123c"/>
    <path id="Path_29316" data-name="Path 29316" d="M1553.75,371.538s1,12.456,2.17,27.425c1.594,20.336,3.515,45.314,3.7,50.049.326,8.213,1.643,21.359,1.643,21.359s3.12,3.124,9.365,1.808a215.163,215.163,0,0,0,7.154-38.619c.028-.322.052-.652.077-.978,1.478-20.211,3.777-62.768,3.777-62.768l-27.889,1.725" transform="translate(-928.341 -220.921)" fill="#1a165e"/>
    <path id="Path_29317" data-name="Path 29317" d="M1553.75,371.538s1,12.456,2.17,27.425l21.866,34.6c.028-.322.052-.652.077-.978,1.478-20.211,3.777-62.768,3.777-62.768l-27.889,1.725" transform="translate(-928.341 -220.921)" fill="#0e0e38"/>
    <path id="Path_29318" data-name="Path 29318" d="M1565.07,365.7s17.993,45.1,29.822,66.3,15.529,27.112,15.529,27.112,6.776-2.714,7.392-4.562c0,0-4.521-40.918-12.445-50.894-4.477-5.637-9.735-22.55-9.981-28.465s-1.6-17.624-1.6-17.624L1565.07,365.7" transform="translate(-935.104 -213.607)" fill="#1a165e"/>
    <path id="Path_29319" data-name="Path 29319" d="M1666.774,355.842l.193,2.9a6.25,6.25,0,0,0,3.446,7.8s2.295.926,2.387-.862-.2-1.111-.016-3.628-.8-4.892-2.464-5.693l-1.365-1.575-2.182,1.062" transform="translate(-995.778 -211.941)" fill="#cfa288"/>
    <path id="Path_29320" data-name="Path 29320" d="M1622.382,277.587c-1.989.639-2.307.494-2.307.494s-9.695-17.647-10.677-19.262-20.578-19.789-20.578-19.789l5.037-18.781s22.288,28.865,24.7,33.007c3.978,6.844,6.309,22.74,6.309,22.74a5.831,5.831,0,0,1-2.48,1.591" transform="translate(-949.291 -131.574)" fill="#0b0754"/>
    <path id="Path_29321" data-name="Path 29321" d="M1544.278,240.172c.073,3.857.3,8.192.6,12.6.016.261.036.522.052.783.193,2.728.4,5.462.644,8.128.1,1.069.2,2.126.306,3.164l.016.14c.008.389.057.81.1,1.195.982,9.987,2.013,17.876,2.2,18a1.128,1.128,0,0,0,.769.2c2.617-.33,10.432.266,16.829-1.127a48.5,48.5,0,0,0,14.973-6.208c.656-.386,2.146-1.41,2.025-2.174-.121-.841-.342-2.056-.62-3.584a193.963,193.963,0,0,1-3.217-25.145q-.169-2.988-.483-5.894a89.815,89.815,0,0,0-2.609-14.077c-2.194-7.9-5.419-13.947-9.461-16.313-.528-.3-3.374,1.513-5.983,3.189A11.535,11.535,0,0,1,1553,214.8l-2.174,2.4a24.286,24.286,0,0,0-6.2,12.921c-.056.428-.109.882-.149,1.366a85.359,85.359,0,0,0-.205,8.686" transform="translate(-922.67 -125.343)" fill="#211d63"/>
    <path id="Path_29322" data-name="Path 29322" d="M1544.278,265.743c.073,3.857.3,8.192.6,12.6.016.261.036.522.052.783,14.961-9.364,17.268-26.5,17.268-26.5a40.93,40.93,0,0,0-17.715,4.435,85.359,85.359,0,0,0-.205,8.686" transform="translate(-922.67 -150.913)" fill="#0b0754"/>
    <path id="Path_29323" data-name="Path 29323" d="M1415.418,234.692l-2.722-1.4a7.46,7.46,0,0,0-8.326-4.965s-2.669.541-1.554,2.208.93.885,2.456,3.265,4.006,3.932,6.031,3.657l2.279.6,1.836-3.368" transform="translate(-838.012 -136.352)" fill="#cfa288"/>
    <path id="Path_29324" data-name="Path 29324" d="M1427.283,236.382c.769-2.086,1.969-1.951,1.969-1.951s22.245,5.543,24.241,5.781,23.952-8.573,23.952-8.573,8.644-3.879,12.69-.337c3.519,3.078,3.68,6.976,2.854,10.25a9.782,9.782,0,0,1-8.27,7.292c-8.958,1.141-26.83,3.289-30.578,2.768-8.338-1.161-27.229-12.066-27.229-12.066a6.982,6.982,0,0,1,.37-3.164" transform="translate(-852.543 -137.286)" fill="#211d63"/>
    <path id="Path_29325" data-name="Path 29325" d="M611.962,648.677s.632-6.893-7.07-6.893a9.053,9.053,0,0,1,3.539,1.9s-4.912-2.883-10.259,1.55-2.025,15.545-3.648,17.655-7.96,2.532-7.183,9.357,20.09,15.368,18.85,21.012c0,0,7.569-11.128,2.158-16.205,0,0,2.637,2.484,2.907,5.439,0,0,.717-5.769-2.955-7.613-3.249-1.635-5.906-7.605-5.629-8.672s9.288-17.526,9.288-17.526" transform="translate(-350.983 -383.393)" fill="#12123c"/>
    <path id="Path_29326" data-name="Path 29326" d="M611.365,731.3a6.838,6.838,0,0,0-12.111-2.822,6.19,6.19,0,0,0-1.22,3c-.8,6.494,9.578,32.938,11.068,35.333,2.706,4.356,18.641,19.3,18.641,19.3l2.935-1.784s-11.3-19.136-13.053-20.924c-2.021-2.073-4-21.25-6.261-32.109" transform="translate(-357.383 -433.588)" fill="#f0ad90"/>
    <path id="Path_29327" data-name="Path 29327" d="M614.013,730.644a17.069,17.069,0,0,1,3.289,5.162s-3.6,10.347-12.022,11.648c0,0,6.663-16.813,8.733-16.809" transform="translate(-361.738 -436.477)" fill="#9e332e"/>
    <path id="Path_29328" data-name="Path 29328" d="M624.687,656.328c.1-.419-9.123,4.171-9.59,4.69-4.328,4.8-3.1,11.068-.62,11.128,1.59.036,1.284,2.677,1.284,2.677l17.695-7.485s-2.13-12.425-8.769-11.012" transform="translate(-365.89 -392.015)" fill="#12123c"/>
    <path id="Path_29329" data-name="Path 29329" d="M530.133,885.738l-3.829-.564a45.276,45.276,0,0,1-14.792-29.326,33.927,33.927,0,0,1-.093-5.9,1.043,1.043,0,0,0-.133-.652l0,0c-.415-.632-1.441-2.214-2.826-4.465-1.369-2.218-3.712-6.41-6.289-11.116-4.646-8.471-10.049-18.6-11.905-21.83-5.906-10.287-3.06-17.2-3.06-17.2s16.483-1.631,21-5.58l1.627,2.508s3.571,15.807,3.4,15.879c.177.539.354,1.087.536,1.643a274.794,274.794,0,0,1,7.827,28.42c.994,4.984,1.522,9.325,1.236,12.28a21.633,21.633,0,0,0,.294,4.5c1.594,11.346,7.014,31.416,7.014,31.416" transform="translate(-290.791 -471.394)" fill="#1a165e"/>
    <path id="Path_29330" data-name="Path 29330" d="M538.165,890.581H522.19a8.788,8.788,0,0,1,.451-4.284c.8-1.772,1.941-1.828.145-4.606,1.015,1.047,4.28,1.478,6.591,1.168.282.459,1.824,3.535,2.77,4.215,1.043.749,5.7.483,6.019,3.507m-24.4-81.457c-1.393,7.7-4.69,20.505-11.6,24.584-4.646-8.471-10.049-18.6-11.905-21.83-5.906-10.287-3.06-17.2-3.06-17.2s16.483-1.631,21-5.58l1.627,2.508s3.571,15.807,3.4,15.879c.177.539.354,1.087.536,1.643" transform="translate(-290.791 -471.394)" fill="#0e0e38"/>
    <path id="Path_29331" data-name="Path 29331" d="M466.858,790.916l.056-2.987c-5.955.749-20.529-7.114-20.529-7.114s-6.228,4.143-7.082,15.972c-.415,5.773-3.048,30.2-3.338,37.487-.109,2.645-.141,4.529-.153,5.282v.008a1.047,1.047,0,0,1-.254.616,34.237,34.237,0,0,0-3.225,4.944c-9.087,16.9-4.336,39.871-4.336,39.871l2.11-.54s7.682-23.807,12.7-34.105a21.667,21.667,0,0,1,2.275-3.893c1.888-2.291,3.877-6.184,5.838-10.871a283.484,283.484,0,0,0,9.876-29.6c.185.032,6.059-15.07,6.059-15.07" transform="translate(-255.091 -466.448)" fill="#1a165e"/>
    <path id="Path_29332" data-name="Path 29332" d="M604.849,722.341c-9.735-2.234-3.515-15.911-2.951-15.67,1.349-.274,4.308-2.641,6.957-7.267l.358.31,5.979,5.242s-1.381,2.037-2.545,4.034c-.91,1.562-1.679,3.1-1.558,3.632.483.378-3.648,10.315-6.24,9.719" transform="translate(-358.239 -417.815)" fill="#f0ad90"/>
    <path id="Path_29333" data-name="Path 29333" d="M629.555,705.422s-1.385,2.037-2.545,4.034c-3.716-2.291-3.72-6.893-3.434-9.272l5.979,5.238" transform="translate(-372.602 -418.281)" fill="#ea8989"/>
    <path id="Path_29334" data-name="Path 29334" d="M629.353,692.189s-9.023-5.021-5.81-10.593,4.211-9.973,10.11-7,5.782,5.737,5.161,7.859-7.03,10.9-9.461,9.735" transform="translate(-372.235 -402.422)" fill="#fac2a1"/>
    <path id="Path_29335" data-name="Path 29335" d="M638.926,678.083c-.411-2.472-1.667-2.71-2.545-2.544a7.219,7.219,0,0,0-8.777-3.358,12.294,12.294,0,0,1-7.114,4.272s1.047,1.949,5.363,3.152a7.373,7.373,0,0,0,4.256-.338,24.122,24.122,0,0,1-6.124,2.307c5.685.519,11.1-4.678,11.656-5.234a8.013,8.013,0,0,1,.447,3.724c-.374,1.679-1.86,4.711-.95,5.105,0,0,4.409-3.374,3.789-7.086" transform="translate(-370.824 -401.305)" fill="#12123c"/>
    <path id="Path_29336" data-name="Path 29336" d="M437.566,1027.8H421.59a8.788,8.788,0,0,1,.451-4.284c.8-1.772,2.053-2.577,1.751-4.723a5.739,5.739,0,0,0,4.98,1.9,17.613,17.613,0,0,0,2.77,3.6c1.047.749,5.7.483,6.023,3.507" transform="translate(-251.952 -608.614)" fill="#0e0e38"/>
    <path id="Path_29337" data-name="Path 29337" d="M531.968,740.047a39.035,39.035,0,0,1-7.891,1.429c-4.2.459-8.539.773-10.81,1.679a2.449,2.449,0,0,0-1.558,1.26c-.986,2.963-5.327,7.533-5.327,7.533-27.817-1.268-30.872-12.9-30.872-12.9,18.717-21.765,50.407-28.066,50.407-28.066s2.267-.958,7.968,3.571c3.8,3.028,3.3,4.187,3.3,4.187s.833,19.2-5.218,21.31" transform="translate(-284.215 -424.678)" fill="#b35656"/>
    <path id="Path_29338" data-name="Path 29338" d="M579.966,753.275c-4.2.459-8.539.773-10.81,1.679a44.293,44.293,0,0,1,5.616-24.31s4.272,17.381,5.194,22.631" transform="translate(-340.104 -436.477)" fill="#9e332e"/>
    <path id="Path_29339" data-name="Path 29339" d="M755.443,866.452H689.725A25.655,25.655,0,0,1,664.07,840.8V775.079a25.655,25.655,0,0,1,25.655-25.655h65.719A25.655,25.655,0,0,1,781.1,775.079V840.8a25.655,25.655,0,0,1-25.655,25.655" transform="translate(-396.858 -447.696)" fill="#beceff"/>
    <path id="Path_29340" data-name="Path 29340" d="M788.24,798.943v57.143a14.851,14.851,0,0,1-14.848,14.848H716.248A14.849,14.849,0,0,1,701.4,856.086V798.943a14.847,14.847,0,0,1,14.848-14.848h57.143a14.847,14.847,0,0,1,14.848,14.848" transform="translate(-419.159 -468.407)" fill="#3366fb"/>
    <path id="Path_29341" data-name="Path 29341" d="M775.667,853.35s-8.294-15.046-.684-21.689,21-2.677,23.464,0,5.745,10.3-1.059,21.129l-21.721.56" transform="translate(-461.196 -494.648)" fill="#12123c"/>
    <path id="Path_29342" data-name="Path 29342" d="M773.819,899.116s-.3,9.288-1.49,13.451l-9.409,6.563,35.422,5.3L789.9,912.761s-2.552-12.457-1.212-17.063-14.865,3.418-14.865,3.418" transform="translate(-455.91 -534.226)" fill="#f1ae91"/>
    <path id="Path_29343" data-name="Path 29343" d="M789.86,909.494s2.8,6.74,8.08,6.595,6.474-6.116,6.474-6.116l-14.555-.479" transform="translate(-472.004 -543.32)" fill="#cfa288"/>
    <path id="Path_29344" data-name="Path 29344" d="M792.308,881.586c-3.821-.064-10.858-5.157-10.858-11.458v-9.84c0-2.3,1.606-4.183,3.567-4.183H799.6c1.961,0,3.567,1.884,3.567,4.183v9.28c0,6.611-6.478,12.094-10.863,12.018" transform="translate(-466.98 -511.425)" fill="#f0ad90"/>
    <path id="Path_29345" data-name="Path 29345" d="M789.839,958.993a14.81,14.81,0,0,1-10.862,4.727H721.834a14.808,14.808,0,0,1-11.084-4.968c12.243-16.278,20.01-17.3,20.211-17.324a51.8,51.8,0,0,1,10.238-2.013c0,.137,4.1,6.148,8.938,6.816,3.008-1.188,5.262-2.351,8.547-6.716a96.5,96.5,0,0,1,12.151,2.371l0-.02s7.255,1.82,19.007,17.127" transform="translate(-424.744 -561.193)" fill="#567bcb"/>
    <path id="Path_29346" data-name="Path 29346" d="M781.42,837.848s2.653-8.1,11.35-6.836,9.445,3.12,10.371,5.278,2.706-7.879,2.706-7.879l-10.255-3.048s-12.409,1.413-13.3,3.495l-.89,2.081.02,6.909m10.15-15.67s-9.188-8.35-5.246-10.134,5.246,10.134,5.246,10.134" transform="translate(-466.95 -484.996)" fill="#12123c"/>
    <path id="Path_29347" data-name="Path 29347" d="M792.224,822.531s-11.62-4.38-8.612-7.489,8.612,7.489,8.612,7.489m.761.242s-1.9-10.77,2.689-10.689-2.689,10.689-2.689,10.689" transform="translate(-467.974 -485.128)" fill="#12123c"/>
    <path id="Path_29348" data-name="Path 29348" d="M809.23,821.2s4.976-11.583,9.606-10.5-9.606,10.5-9.606,10.5" transform="translate(-483.575 -484.258)" fill="#12123c"/>
    <path id="Path_29349" data-name="Path 29349" d="M808.59,826.965s7.923-9.812,12.09-7.517-12.09,7.517-12.09,7.517" transform="translate(-483.193 -489.319)" fill="#12123c"/>
    <path id="Path_29350" data-name="Path 29350" d="M589.935,723.974s-10.532,1.039-11.374,7.883,10.094,34.705,11.66,37.23c2.851,4.594,19.644,20.336,19.644,20.336l3.1-1.876s-11.909-20.163-13.753-22.051c-2.9-2.963-5.709-39.15-9.272-41.521" transform="translate(-345.749 -432.493)" fill="#f0ad90"/>
    <path id="Path_29351" data-name="Path 29351" d="M576.1,733.537c.028.157,9.719,3.164,15.952,0,0,0,1.337-14.389-6.108-13.608s-11.853,3.128-12.042,6.691a12.616,12.616,0,0,0,2.2,6.917" transform="translate(-342.989 -430.057)" fill="#b35656"/>
    <path id="Path_29352" data-name="Path 29352" d="M655.525,883.75s-1.3,4.94,0,7.175a20.578,20.578,0,0,0,3.1,3.962V881.874l-3.1,1.876" transform="translate(-391.41 -526.82)" fill="#fc9290"/>
    <path id="Path_29353" data-name="Path 29353" d="M1414.772,866.452h-82.2l27.015-117.028h78.24l3.6,1.582-26.653,115.445" transform="translate(-796.211 -447.696)" fill="#15152a"/>
    <path id="Path_29354" data-name="Path 29354" d="M1404.932,866.452h-82.2l27.015-117.028h82.2l-27.015,117.028" transform="translate(-790.333 -447.696)" fill="#fff"/>
    <path id="Path_29355" data-name="Path 29355" d="M1429.972,790.284h-37.934a2.04,2.04,0,0,0-1.876,1.526,1.175,1.175,0,0,0,1.172,1.522h37.934a2.036,2.036,0,0,0,1.876-1.522,1.178,1.178,0,0,0-1.172-1.526m-.813,8.121H1389.1a.621.621,0,0,0-.572.467.357.357,0,0,0,.358.463h40.052a.618.618,0,0,0,.572-.463.358.358,0,0,0-.354-.467m-.5,2.146h-40.052a.617.617,0,0,0-.572.467.357.357,0,0,0,.358.463h40.052a.618.618,0,0,0,.572-.463.359.359,0,0,0-.359-.467m-54.039-7.219h10.247a2.04,2.04,0,0,0,1.876-1.522,1.178,1.178,0,0,0-1.172-1.526h-10.25a2.044,2.044,0,0,0-1.876,1.526,1.176,1.176,0,0,0,1.176,1.522m49.1,20.578H1385.79a2.036,2.036,0,0,0-1.876,1.522,1.178,1.178,0,0,0,1.172,1.526h37.934a2.04,2.04,0,0,0,1.876-1.526,1.175,1.175,0,0,0-1.172-1.522m-.817,8.117h-40.052a.625.625,0,0,0-.572.467.359.359,0,0,0,.358.467h40.052a.617.617,0,0,0,.572-.467.359.359,0,0,0-.358-.467m-.5,2.146h-40.052a.617.617,0,0,0-.572.467.36.36,0,0,0,.358.467H1422.2a.622.622,0,0,0,.572-.467.359.359,0,0,0-.358-.467m-54.043-7.215h10.25a2.044,2.044,0,0,0,1.876-1.526,1.175,1.175,0,0,0-1.172-1.522h-10.25a2.04,2.04,0,0,0-1.876,1.522,1.178,1.178,0,0,0,1.172,1.526m50.379,20.574h-37.938a2.039,2.039,0,0,0-1.876,1.526,1.175,1.175,0,0,0,1.172,1.522h37.938a2.04,2.04,0,0,0,1.876-1.522,1.177,1.177,0,0,0-1.172-1.526m-.817,8.121h-40.052a.627.627,0,0,0-.576.463.362.362,0,0,0,.358.467h40.056a.625.625,0,0,0,.572-.467.359.359,0,0,0-.358-.463m-.5,2.146h-40.052a.626.626,0,0,0-.576.463.362.362,0,0,0,.358.467h40.052a.625.625,0,0,0,.576-.467.359.359,0,0,0-.358-.463m-54.043-7.219h10.251a2.04,2.04,0,0,0,1.876-1.522,1.178,1.178,0,0,0-1.176-1.526H1364.1a2.039,2.039,0,0,0-1.876,1.526,1.175,1.175,0,0,0,1.172,1.522m49.546,21.54H1375a2.04,2.04,0,0,0-1.876,1.522,1.178,1.178,0,0,0,1.172,1.526h37.938a2.044,2.044,0,0,0,1.876-1.526,1.175,1.175,0,0,0-1.172-1.522m-.818,8.117h-40.052a.617.617,0,0,0-.572.467.355.355,0,0,0,.354.463h40.056a.617.617,0,0,0,.572-.463.359.359,0,0,0-.359-.467m-.5,2.146h-40.052a.617.617,0,0,0-.572.467.356.356,0,0,0,.354.463h40.056a.622.622,0,0,0,.572-.463.359.359,0,0,0-.358-.467m-43.088-10.263h-10.25a2.04,2.04,0,0,0-1.876,1.522,1.178,1.178,0,0,0,1.172,1.526h10.25a2.044,2.044,0,0,0,1.876-1.526,1.175,1.175,0,0,0-1.172-1.522" transform="translate(-810.43 -472.105)" fill="#bed2fa"/>
    <path id="Path_29356" data-name="Path 29356" d="M1471.269,756.989h-31.855a3.388,3.388,0,0,1-3.306-4.151l1.2-5.194h39.219l-1.458,6.321a3.9,3.9,0,0,1-3.8,3.024" transform="translate(-858.011 -446.633)" fill="#93b3f4"/>
    <path id="Path_29357" data-name="Path 29357" d="M1536.385,747.644l2.7.717h-2.867l.165-.717" transform="translate(-917.869 -446.632)" fill="#fa7269"/>
    <path id="Path_29358" data-name="Path 29358" d="M1461.545,1029.3a2.712,2.712,0,0,1-.8,1.925,2.784,2.784,0,0,1-1.325.733,2.951,2.951,0,0,1-.6.064h-76.642a2.722,2.722,0,0,1,0-5.443h76.642a2.685,2.685,0,0,1,.6.068,2.727,2.727,0,0,1,2.122,2.653" transform="translate(-824.223 -613.262)" fill="#93b3f4"/>
    <path id="Path_29359" data-name="Path 29359" d="M1578.07,1026.574l10.009,2.214-10.009,3.229v-5.443" transform="translate(-942.87 -613.261)" fill="#6d89cf"/>
    <path id="Path_29360" data-name="Path 29360" d="M1399.071,1026.574v5.443h-16.89a2.722,2.722,0,0,1,0-5.443h16.89" transform="translate(-824.223 -613.262)" fill="#6d89cf"/>
  </g>
</svg>
