<svg xmlns="http://www.w3.org/2000/svg" width="12.526" height="14.012" viewBox="0 0 12.526 14.012">
  <path id="phone" d="M13.137,11.366V13.25a1.337,1.337,0,0,1-.359.93,1.031,1.031,0,0,1-.849.325,10.179,10.179,0,0,1-4.784-1.927A11.633,11.633,0,0,1,3.818,8.811a13.52,13.52,0,0,1-1.7-5.443A1.363,1.363,0,0,1,2.4,2.409,1.055,1.055,0,0,1,3.22,2H4.883A1.162,1.162,0,0,1,5.991,3.08a8.947,8.947,0,0,0,.388,1.764A1.379,1.379,0,0,1,6.13,6.168l-.7.8a9.543,9.543,0,0,0,3.326,3.767l.7-.8a1.017,1.017,0,0,1,1.17-.282,6.446,6.446,0,0,0,1.558.439A1.22,1.22,0,0,1,13.137,11.366Z" transform="translate(-1.362 -1.25)" fill="none" stroke="#6271df" stroke-linecap="round" stroke-linejoin="round" stroke-width="1.5"/>
</svg>
