<svg xmlns="http://www.w3.org/2000/svg" width="8.158" height="12.099" viewBox="0 0 8.158 12.099">
  <g id="Group_27919" data-name="Group 27919" transform="translate(-601 -245.951)">
    <g id="down" transform="translate(601 252.951)">
      <path id="down-2" data-name="down" d="M.28,0H7.89a.279.279,0,0,1,.193.467l-3.719,4.5a.347.347,0,0,1-.537,0L.065.467A.285.285,0,0,1,.28,0" fill="#454f5b"/>
    </g>
    <g id="down-3" data-name="down" transform="translate(609.158 251.049) rotate(180)">
      <path id="down-4" data-name="down" d="M.28,0H7.89a.279.279,0,0,1,.193.467l-3.719,4.5a.347.347,0,0,1-.537,0L.065.467A.285.285,0,0,1,.28,0" fill="#454f5b"/>
    </g>
  </g>
</svg>
