<svg xmlns="http://www.w3.org/2000/svg" width="143.11" height="28" viewBox="0 0 143.11 28">
  <g id="World_Bank_Group_logo" transform="translate(-0.5 -0.199)">
    <path id="Path_29382" data-name="Path 29382" d="M17.683,23.078a15.743,15.743,0,0,0,5.121-.814c.383-.144.766-.287,1.1-.431a6.436,6.436,0,0,1-1.867,2.585,12.912,12.912,0,0,1-5.648,2.345,10.657,10.657,0,0,0,1.292-3.685M9.02,25.663c-.048-.048-.1-.048-.144-.1-.718-.335-1.005-1.962-.622-4.451a26.092,26.092,0,0,0,4.5,1.484,23.071,23.071,0,0,0,3.59.479c-.574,2.489-1.34,3.829-1.819,3.829h-.1A12.814,12.814,0,0,1,9.02,25.663M2.271,17.67a12.024,12.024,0,0,1-.191-1.292A11.019,11.019,0,0,0,3.659,18.2a17.391,17.391,0,0,0,3.35,2.345,11.482,11.482,0,0,0-.144,3.781A13.128,13.128,0,0,1,2.271,17.67M18.5,14.176V12.644A9.845,9.845,0,0,0,22.852,11.4a14.7,14.7,0,0,1,1.723,6.892,11.372,11.372,0,0,1-.144,1.867,7.764,7.764,0,0,1-2.01.909,16.37,16.37,0,0,1-4.5.766,49.234,49.234,0,0,0,.574-7.658M13.04,21.307a19.548,19.548,0,0,1-4.547-1.532A32.483,32.483,0,0,1,11.126,12.5c.191-.383.383-.766.574-1.2a15.931,15.931,0,0,0,3.015,1.005,10.626,10.626,0,0,0,2.441.287v1.532a40.87,40.87,0,0,1-.622,7.61,15.155,15.155,0,0,1-3.494-.431M4.568,17.239a8.047,8.047,0,0,1-2.25-3.207,10.044,10.044,0,0,1,1.771-3.59A13.91,13.91,0,0,1,7.153,7.475,6.161,6.161,0,0,0,8.589,9.246,10.938,10.938,0,0,0,10.6,10.73c-.191.383-.431.814-.622,1.2A39.266,39.266,0,0,0,7.3,19.153a13.933,13.933,0,0,1-2.728-1.915M17.635,5.082a17.628,17.628,0,0,1,3.973,4.212c.191.335.431.622.622.957A8.519,8.519,0,0,1,18.449,11.3a38.517,38.517,0,0,0-.814-6.222M15.05,11.065a12.528,12.528,0,0,1-2.68-.862,27.178,27.178,0,0,1,3.877-5.361,32.566,32.566,0,0,1,.909,6.461,10.139,10.139,0,0,1-2.106-.239M9.45,8.336A7.183,7.183,0,0,1,8.206,6.757a18.985,18.985,0,0,1,4.02-1.771,25.022,25.022,0,0,1,2.585-.574,30.513,30.513,0,0,0-3.638,5.169A8.764,8.764,0,0,1,9.45,8.336M6.674,4.172c0,.048-.048.144-.048.191A4.1,4.1,0,0,0,6.674,6.23a15.2,15.2,0,0,0-3.59,3.4c-.287.383-.574.814-.814,1.2a12.618,12.618,0,0,1,4.4-6.653m1.2.479a3.113,3.113,0,0,1,1.2-1.771,8.48,8.48,0,0,1,5.169.335,20.918,20.918,0,0,0-2.345.574,18.854,18.854,0,0,0-4.02,1.723,2.6,2.6,0,0,1,0-.862M18.449,2.928a4.461,4.461,0,0,1,1.2-.574A8.161,8.161,0,0,1,21.56,3.359a28.708,28.708,0,0,0-3.111-.431M16.295,1.54a11.17,11.17,0,0,1,1.675.287,7.19,7.19,0,0,0-1.1.718c-.239-.383-.383-.718-.574-1.005m-1.436.526a12.416,12.416,0,0,0-1.771-.526,13.522,13.522,0,0,1,1.388-.1c.239,0,.479.287.766.766a3.3,3.3,0,0,0-.383-.144M.5,14.176A14.228,14.228,0,0,0,1.026,18c0,.1.048.144.048.239v.048a14.062,14.062,0,0,0,13.4,9.908,13.864,13.864,0,0,0,7.849-2.441.047.047,0,0,0,.048-.048c.144-.1.239-.191.383-.287a14.2,14.2,0,0,0,5.313-7.9,1.4,1.4,0,0,0,.1-.431V17a13.913,13.913,0,0,0,.287-2.872,14.065,14.065,0,0,0-1.1-5.456.654.654,0,0,0-1.2.526,12.614,12.614,0,0,1,1.005,4.93,13.1,13.1,0,0,1-.383,3.063,4.53,4.53,0,0,1-1.005,1.723v-.67a16.523,16.523,0,0,0-1.962-7.61,4.9,4.9,0,0,0,1.723-2.92.723.723,0,0,0-.526-.766.692.692,0,0,0-.766.526,4,4,0,0,1-1.1,2.01c-.191-.287-.383-.622-.574-.909a20.155,20.155,0,0,0-3.973-4.308A12.978,12.978,0,0,1,23.857,5.7a.649.649,0,0,0,.766-.048.626.626,0,0,0,.1-.909C22.613,1.827,18.975.2,14.476.2A13.931,13.931,0,0,0,.5,14.176" fill="#fff"/>
    <path id="Path_29383" data-name="Path 29383" d="M174.031,20.748c2.058,0,3.207,1.005,3.207,2.824,0,1.723-1.149,2.728-3.015,2.728h-1.34v2.68H171.16V20.748m1.771,4.164h1.053c1.005,0,1.532-.431,1.532-1.34s-.574-1.388-1.579-1.388h-1.005v2.728Zm-4.978.766c0,1.2-.479,1.771-1.436,1.771s-1.436-.622-1.436-1.771v-4.93H163.31v4.786a3.558,3.558,0,0,0,.862,2.632,3.241,3.241,0,0,0,2.345.814c1.436,0,3.159-.622,3.159-3.494V20.7h-1.723v4.978ZM158.572,20.7c1.771,0,3.685,1.1,3.685,4.164s-1.915,4.164-3.685,4.164-3.685-1.1-3.685-4.164S156.8,20.7,158.572,20.7m0,6.8c.67,0,1.867-.335,1.867-2.632s-1.149-2.632-1.867-2.632c-1.2,0-1.867.957-1.867,2.632,0,1.723.67,2.632,1.867,2.632m-5.456-1.005c.287.574.527,1.1,1.1,1.1h.431v1.34H154.6a3.441,3.441,0,0,1-.862.1c-1.388,0-1.819-.957-2.154-1.771-.287-.67-.574-1.292-1.292-1.292h-.766V28.98h-1.771V20.748h2.92c2.106,0,3.111.814,3.111,2.585a2.173,2.173,0,0,1-1.34,2.058,5.21,5.21,0,0,1,.67,1.1m-3.638-1.867h.957c.957,0,1.579-.431,1.579-1.2s-.527-1.2-1.436-1.2h-1.1Zm-6.414,1.34h1.819v.1a1.308,1.308,0,0,1-1.436,1.436c-1.2,0-1.914-.957-1.914-2.585,0-1.675.67-2.632,1.867-2.632a1.457,1.457,0,0,1,1.436,1.484v.1l1.627-.239v-.048a2.98,2.98,0,0,0-3.111-2.824c-2.3,0-3.638,1.532-3.638,4.164,0,2.585,1.388,4.164,3.685,4.164a2.864,2.864,0,0,0,3.111-2.967V24.673h-3.446v1.292Zm-5.217-5.217h-2.058l-2.728,3.685V20.748H131.29V28.98h1.771V25.2l2.776,3.781h2.106l-3.159-4.116Zm-9.86,5.073-2.872-5.073h-1.771V28.98h1.771V24.1l2.872,4.882h1.771V20.748h-1.723v5.073Zm-8.137-4.978,3.015,8.137h-1.819l-.718-2.01H117.6l-.67,2.01h-1.819l3.015-8.185h1.723ZM118.989,23l-.862,2.585H119.9Zm-5.5,1.627a2,2,0,0,1,1.436,2.01c0,1.484-1.053,2.345-2.872,2.345H108.6V20.748h3.111c1.771,0,2.68.766,2.68,2.2,0,1.149-.526,1.579-.909,1.675m-1.962-.526c.718,0,1.053-.287,1.053-.957,0-.622-.431-.957-1.292-.957h-.957V24.1Zm-1.2,3.446h1.388c.909,0,1.292-.335,1.292-1.053,0-.862-.718-1.053-1.34-1.053h-1.34Zm-8.95-6.8c2.537,0,4.068,1.579,4.068,4.26,0,2.537-1.34,3.973-3.733,3.973H98.935V20.748Zm-.67,6.8h1.005c1.244,0,2.01-.957,2.01-2.537,0-1.819-.814-2.776-2.345-2.776h-.67Zm-6.126-6.8H92.808V28.98h5.313V27.544H94.579v-6.8Zm-4.116,5.744c.287.574.526,1.1,1.1,1.1h.431v1.34h-.048a3.441,3.441,0,0,1-.862.1c-1.388,0-1.819-.957-2.154-1.771-.287-.67-.574-1.292-1.292-1.292h-.766V28.98H85.1V20.748h2.92c2.106,0,3.111.814,3.111,2.585a2.173,2.173,0,0,1-1.34,2.058,2.97,2.97,0,0,1,.67,1.1m-3.59-1.867h.957c.957,0,1.579-.431,1.579-1.2s-.526-1.2-1.436-1.2h-1.1ZM80.46,20.7c1.771,0,3.685,1.1,3.685,4.164s-1.915,4.164-3.685,4.164-3.685-1.1-3.685-4.164S78.689,20.7,80.46,20.7m0,6.8c.718,0,1.867-.335,1.867-2.632s-1.149-2.632-1.867-2.632c-1.2,0-1.867.957-1.867,2.632,0,1.723.67,2.632,1.867,2.632m-5.887-6.749h1.962L74.19,28.98H72.227l-1.436-5.121L69.308,28.98H67.345L65,20.748h2.01L68.4,26.731l1.675-5.983h1.484l1.579,5.983Z" transform="translate(-33.629 -10.688)" fill="#fff"/>
  </g>
</svg>
